<svg width="28" height="28" viewBox="0 0 28 28" fill="none" xmlns="http://www.w3.org/2000/svg">
<circle cx="14" cy="14" r="13" stroke="#58FEA4" stroke-width="2"/>
<path d="M10.2131 20V18.7273L14.1506 14.6477C14.571 14.2045 14.9176 13.8163 15.1903 13.483C15.4669 13.1458 15.6733 12.8258 15.8097 12.5227C15.946 12.2197 16.0142 11.8977 16.0142 11.5568C16.0142 11.1705 15.9233 10.8371 15.7415 10.5568C15.5597 10.2727 15.3116 10.0549 14.9972 9.90341C14.6828 9.74811 14.3286 9.67045 13.9347 9.67045C13.518 9.67045 13.1544 9.75568 12.8438 9.92614C12.5331 10.0966 12.2945 10.3371 12.1278 10.6477C11.9612 10.9583 11.8778 11.322 11.8778 11.7386H10.2017C10.2017 11.0303 10.3646 10.411 10.6903 9.88068C11.0161 9.35038 11.4631 8.93939 12.0312 8.64773C12.5994 8.35227 13.2453 8.20455 13.9688 8.20455C14.6998 8.20455 15.3438 8.35038 15.9006 8.64205C16.4612 8.92992 16.8987 9.32386 17.2131 9.82386C17.5275 10.3201 17.6847 10.8807 17.6847 11.5057C17.6847 11.9375 17.6032 12.3598 17.4403 12.7727C17.2813 13.1856 17.0028 13.6458 16.6051 14.1534C16.2074 14.6572 15.6544 15.2689 14.946 15.9886L12.6335 18.4091V18.4943H17.8722V20H10.2131Z" fill="#58FEA4"/>
</svg>
