<svg width="28" height="28" viewBox="0 0 28 28" fill="none" xmlns="http://www.w3.org/2000/svg">
<circle cx="14" cy="14" r="13" stroke="#58FEA4" stroke-width="2"/>
<path d="M14.0142 20.1591C13.2339 20.1591 12.5369 20.0246 11.9233 19.7557C11.3134 19.4867 10.8305 19.1136 10.4744 18.6364C10.1222 18.1553 9.93277 17.5985 9.90625 16.9659H11.6903C11.7131 17.3106 11.8286 17.6098 12.0369 17.8636C12.2491 18.1136 12.5256 18.3068 12.8665 18.4432C13.2074 18.5795 13.5862 18.6477 14.0028 18.6477C14.4612 18.6477 14.8665 18.5682 15.2188 18.4091C15.5748 18.25 15.8532 18.0284 16.054 17.7443C16.2547 17.4564 16.3551 17.125 16.3551 16.75C16.3551 16.3598 16.2547 16.017 16.054 15.7216C15.857 15.4223 15.5672 15.1875 15.1847 15.017C14.8059 14.8466 14.3475 14.7614 13.8097 14.7614H12.8267V13.3295H13.8097C14.2415 13.3295 14.6203 13.2519 14.946 13.0966C15.2756 12.9413 15.5331 12.7254 15.7188 12.4489C15.9044 12.1686 15.9972 11.8409 15.9972 11.4659C15.9972 11.1061 15.9157 10.7936 15.7528 10.5284C15.5938 10.2595 15.3665 10.0492 15.071 9.89773C14.7794 9.74621 14.4347 9.67045 14.0369 9.67045C13.6581 9.67045 13.304 9.74053 12.9744 9.88068C12.6487 10.017 12.3835 10.214 12.179 10.4716C11.9744 10.7254 11.8646 11.0303 11.8494 11.3864H10.1506C10.1695 10.7576 10.3551 10.2045 10.7074 9.72727C11.0634 9.25 11.5331 8.87689 12.1165 8.60795C12.6998 8.33901 13.3475 8.20455 14.0597 8.20455C14.8059 8.20455 15.4498 8.35038 15.9915 8.64205C16.5369 8.92992 16.9574 9.31439 17.2528 9.79545C17.5521 10.2765 17.6998 10.803 17.696 11.375C17.6998 12.0265 17.518 12.5795 17.1506 13.0341C16.7869 13.4886 16.3021 13.7936 15.696 13.9489V14.0398C16.4688 14.1572 17.0672 14.464 17.4915 14.9602C17.9195 15.4564 18.1316 16.072 18.1278 16.8068C18.1316 17.447 17.9536 18.0208 17.5938 18.5284C17.2377 19.036 16.7509 19.4356 16.1335 19.7273C15.5161 20.0152 14.8097 20.1591 14.0142 20.1591Z" fill="#58FEA4"/>
</svg>
