<svg width="28" height="28" viewBox="0 0 28 28" fill="none" xmlns="http://www.w3.org/2000/svg">
<circle cx="14" cy="14" r="13" stroke="#58FEA4" stroke-width="2"/>
<path d="M13.9993 20.1591C13.2872 20.1591 12.647 20.0227 12.0788 19.75C11.5144 19.4735 11.0637 19.0947 10.7266 18.6136C10.3894 18.1326 10.2095 17.5833 10.1868 16.9659H11.8913C11.933 17.4659 12.1546 17.8769 12.5561 18.1989C12.9576 18.5208 13.4387 18.6818 13.9993 18.6818C14.4463 18.6818 14.8421 18.5795 15.1868 18.375C15.5353 18.1667 15.808 17.8807 16.005 17.517C16.2057 17.1534 16.3061 16.7386 16.3061 16.2727C16.3061 15.7992 16.2038 15.3769 15.9993 15.0057C15.7947 14.6345 15.5125 14.3428 15.1527 14.1307C14.7966 13.9186 14.3875 13.8106 13.9254 13.8068C13.5732 13.8068 13.219 13.8674 12.8629 13.9886C12.5069 14.1098 12.219 14.2689 11.9993 14.4659L10.3913 14.2273L11.0447 8.36364H17.4425V9.86932H12.505L12.1357 13.125H12.2038C12.4311 12.9053 12.7322 12.7216 13.1072 12.5739C13.486 12.4261 13.8913 12.3523 14.3232 12.3523C15.0315 12.3523 15.6622 12.5208 16.2152 12.858C16.772 13.1951 17.2095 13.6553 17.5277 14.2386C17.8497 14.8182 18.0088 15.4848 18.005 16.2386C18.0088 16.9924 17.8383 17.6648 17.4936 18.2557C17.1527 18.8466 16.6792 19.3125 16.0732 19.6534C15.4709 19.9905 14.7796 20.1591 13.9993 20.1591Z" fill="#58FEA4"/>
</svg>
