<svg width="28" height="28" viewBox="0 0 28 28" fill="none" xmlns="http://www.w3.org/2000/svg">
<circle cx="14" cy="14" r="13" stroke="#58FEA4" stroke-width="2"/>
<path d="M14.0959 20.1591C13.5769 20.1515 13.0656 20.0568 12.5618 19.875C12.0618 19.6932 11.6072 19.3902 11.1982 18.9659C10.7891 18.5417 10.4614 17.9716 10.2152 17.2557C9.97277 16.5398 9.85156 15.6458 9.85156 14.5739C9.85156 13.5587 9.95194 12.6572 10.1527 11.8693C10.3572 11.0814 10.6508 10.4167 11.0334 9.875C11.416 9.32955 11.8781 8.91477 12.4197 8.63068C12.9614 8.34659 13.5694 8.20455 14.2436 8.20455C14.9368 8.20455 15.5523 8.34091 16.0902 8.61364C16.6281 8.88636 17.0637 9.26326 17.397 9.74432C17.7341 10.2254 17.9482 10.7727 18.0391 11.3864H16.3061C16.1887 10.9015 15.9557 10.5057 15.6072 10.1989C15.2588 9.89205 14.8042 9.73864 14.2436 9.73864C13.3913 9.73864 12.7266 10.1098 12.2493 10.8523C11.7758 11.5947 11.5372 12.6269 11.5334 13.9489H11.6186C11.8194 13.6193 12.0656 13.339 12.3572 13.108C12.6527 12.8731 12.9822 12.6932 13.3459 12.5682C13.7133 12.4394 14.0997 12.375 14.505 12.375C15.1792 12.375 15.7891 12.5398 16.3345 12.8693C16.8838 13.1951 17.3213 13.6458 17.647 14.2216C17.9728 14.7973 18.1357 15.4564 18.1357 16.1989C18.1357 16.9413 17.9671 17.6136 17.63 18.2159C17.2966 18.8182 16.8269 19.2955 16.2209 19.6477C15.6148 19.9962 14.9065 20.1667 14.0959 20.1591ZM14.0902 18.6818C14.5372 18.6818 14.9368 18.572 15.2891 18.3523C15.6413 18.1326 15.9197 17.8371 16.1243 17.4659C16.3288 17.0947 16.4311 16.6799 16.4311 16.2216C16.4311 15.7746 16.3307 15.3674 16.13 15C15.933 14.6326 15.6603 14.3409 15.3118 14.125C14.9671 13.9091 14.5732 13.8011 14.13 13.8011C13.7929 13.8011 13.4804 13.8655 13.1925 13.9943C12.9084 14.1231 12.6584 14.3011 12.4425 14.5284C12.2266 14.7557 12.0561 15.017 11.9311 15.3125C11.8099 15.6042 11.7493 15.9129 11.7493 16.2386C11.7493 16.6742 11.8497 17.0777 12.0504 17.4489C12.255 17.8201 12.5334 18.1193 12.8857 18.3466C13.2417 18.5701 13.6432 18.6818 14.0902 18.6818Z" fill="#58FEA4"/>
</svg>
